<svg
  xmlns="http://www.w3.org/2000/svg"
  width="22"
  height="22"
  viewBox="0 0 22 22"
>
  <defs>
    <clipPath id="clip-path">
      <rect
        id="Rectangle_1613"
        data-name="Rectangle 1613"
        width="22"
        height="22"
        transform="translate(14 14)"
        stroke="#fff"
        stroke-width="1"
      />
    </clipPath>
  </defs>
  <g
    id="Mask_Group_267"
    data-name="Mask Group 267"
    transform="translate(-14 -14)"
    clip-path="url(#clip-path)"
  >
    <g id="Table" transform="translate(13.988 13.988)">
      <path
        id="Path_4771"
        data-name="Path 4771"
        d="M21.1,6.449A3.524,3.524,0,0,0,20.993,1.6l-.559-.573A3.524,3.524,0,0,0,15.588.925L13.434,2.89a.379.379,0,1,0,.511.555l.59-.546,4.59,4.59-.546.6a.379.379,0,0,0,0,.524h0a.379.379,0,0,0,.533-.026ZM15.1,2.387l.982-.881a2.44,2.44,0,0,1,.383-.291L20.83,5.576a2.44,2.44,0,0,1-.291.383l-.9.982Z"
      />
      <path
        id="Path_4772"
        data-name="Path 4772"
        d="M15.575,21.1a3.524,3.524,0,0,0,4.845-.106l.559-.559a3.524,3.524,0,0,0,.106-4.845l-1.951-2.154a.379.379,0,1,0-.555.511l.546.59-4.59,4.59-.6-.546a.379.379,0,0,0-.524,0h0a.379.379,0,0,0,.026.533ZM19.636,15.1l.9.982a2.44,2.44,0,0,1,.291.383L16.469,20.83a2.44,2.44,0,0,1-.383-.291l-.982-.9Z"
      />
      <path
        id="Path_4773"
        data-name="Path 4773"
        d="M.925,15.575a3.524,3.524,0,0,0,.106,4.845l.559.559a3.524,3.524,0,0,0,4.845.106l2.141-1.965a.379.379,0,1,0-.511-.555l-.577.559L2.9,14.536l.546-.6a.379.379,0,0,0,0-.524h0a.379.379,0,0,0-.533.026ZM6.92,19.636l-.982.9a2.44,2.44,0,0,1-.383.291L1.194,16.469a2.44,2.44,0,0,1,.291-.383l.9-.982Z"
      />
      <path
        id="Path_4774"
        data-name="Path 4774"
        d="M6.449.925A3.524,3.524,0,0,0,1.6,1.031l-.573.559A3.524,3.524,0,0,0,.925,6.435L2.89,8.589a.379.379,0,1,0,.555-.511L2.9,7.488,7.488,2.9l.6.546a.379.379,0,0,0,.524,0h0a.379.379,0,0,0-.026-.533ZM2.387,6.92l-.881-.982a2.44,2.44,0,0,1-.291-.383L5.576,1.194a2.44,2.44,0,0,1,.383.291l.982.9Z"
      />
      <path
        id="Path_4775"
        data-name="Path 4775"
        d="M11.012,17.654a1.987,1.987,0,0,1-1.418-.586L4.955,12.43a2.009,2.009,0,0,1,0-2.837L9.594,4.955a2.009,2.009,0,0,1,2.837,0l4.638,4.638a2.009,2.009,0,0,1,0,2.837L12.43,17.068A1.987,1.987,0,0,1,11.012,17.654Zm0-12.4a1.132,1.132,0,0,0-.8.326L5.576,10.215a1.136,1.136,0,0,0,0,1.595l4.638,4.638a1.163,1.163,0,0,0,1.595,0l4.638-4.638a1.136,1.136,0,0,0,0-1.595L11.809,5.576a1.132,1.132,0,0,0-.8-.326Z"
      />
    </g>
  </g>
</svg>
