<svg width="67" height="58" viewBox="0 0 67 58" fill="none" xmlns="http://www.w3.org/2000/svg">
<path d="M66.9822 13.8993C66.9822 16.1097 65.1737 17.9182 62.9632 17.9182H4.01893C1.80852 17.9182 0 16.1097 0 13.8993V13.8658C0 6.19634 6.19585 0.000488281 13.8653 0.000488281H53.0834C60.7528 0.000488281 66.9822 6.22983 66.9822 13.8993Z" fill="white"/>
<path d="M0 26.9652V43.7443C0 51.4137 6.19585 57.6096 13.8653 57.6096H53.0834C60.7528 57.6096 66.9822 51.3802 66.9822 43.7108V26.9652C66.9822 24.7548 65.1737 22.9463 62.9632 22.9463H4.01893C1.80852 22.9463 0 24.7548 0 26.9652ZM20.0947 46.3901H13.3964C12.0233 46.3901 10.8846 45.2514 10.8846 43.8782C10.8846 42.5051 12.0233 41.3664 13.3964 41.3664H20.0947C21.4678 41.3664 22.6065 42.5051 22.6065 43.8782C22.6065 45.2514 21.4678 46.3901 20.0947 46.3901ZM41.8639 46.3901H28.4674C27.0943 46.3901 25.9556 45.2514 25.9556 43.8782C25.9556 42.5051 27.0943 41.3664 28.4674 41.3664H41.8639C43.237 41.3664 44.3757 42.5051 44.3757 43.8782C44.3757 45.2514 43.237 46.3901 41.8639 46.3901Z" fill="white"/>
</svg>
