<?xml version="1.0" standalone="no"?>
<!DOCTYPE svg PUBLIC "-//W3C//DTD SVG 20010904//EN"
 "http://www.w3.org/TR/2001/REC-SVG-20010904/DTD/svg10.dtd">
<svg version="1.0" xmlns="http://www.w3.org/2000/svg"
 width="200.000000pt" height="200.000000pt" viewBox="0 0 200.000000 200.000000"
 preserveAspectRatio="xMidYMid meet">

<g transform="translate(0.000000,200.000000) scale(0.100000,-0.100000)"
fill="currentColor" stroke="none">
<path d="M420 1791 c-82 -26 -150 -83 -188 -155 -36 -68 -38 -186 -5 -259 25
-53 216 -257 242 -257 21 0 411 390 411 411 0 25 -200 212 -254 239 -52 25
-161 36 -206 21z m166 -48 c38 -13 72 -39 149 -114 l100 -98 -32 -33 -32 -32
-88 86 c-103 100 -145 120 -215 99 -54 -16 -103 -65 -119 -119 -21 -70 -1
-112 99 -215 l86 -88 -32 -32 -33 -32 -98 100 c-80 82 -101 110 -116 154 -68
205 125 394 331 324z m-22 -138 c17 -8 65 -49 106 -90 l75 -75 -93 -92 -92
-93 -75 75 c-41 41 -82 89 -91 108 -29 61 4 139 70 168 41 17 61 17 100 -1z" fill="currentColor"/>
<path d="M1412 1786 c-23 -8 -55 -22 -70 -32 -46 -29 -222 -207 -222 -223 0
-21 391 -411 411 -411 25 0 212 200 240 256 33 68 34 189 1 251 -55 105 -143
164 -251 169 -39 2 -83 -2 -109 -10z m203 -54 c116 -59 170 -191 130 -313 -15
-44 -36 -72 -116 -154 l-98 -100 -33 32 -32 32 86 88 c99 102 119 145 99 213
-16 55 -54 96 -107 116 -40 15 -53 16 -93 5 -37 -10 -63 -29 -134 -99 l-87
-87 -33 33 -32 33 100 98 c71 69 114 103 145 114 58 22 152 17 205 -11z m-64
-135 c19 -12 42 -39 53 -60 31 -63 17 -96 -79 -196 l-84 -86 -93 92 -93 93 75
75 c108 109 155 126 221 82z" fill="currentColor"/>
<path d="M909 1315 c-149 -48 -251 -197 -236 -343 7 -71 57 -171 104 -213 129
-112 317 -112 446 0 20 18 51 62 69 99 80 163 15 353 -147 433 -77 38 -166 47
-236 24z m214 -56 c178 -89 218 -319 80 -461 -53 -55 -123 -82 -208 -82 -111
1 -199 56 -253 159 -36 69 -37 179 -3 245 42 81 112 139 196 161 47 13 141 1
188 -22z" fill="currentColor"/>
<path d="M351 775 c-125 -129 -146 -168 -146 -280 0 -70 4 -87 29 -133 33 -60
76 -101 139 -134 62 -33 183 -32 251 1 56 28 256 215 256 240 0 21 -390 411
-411 411 -9 0 -62 -47 -118 -105z m154 25 l29 -30 -86 -88 c-70 -70 -89 -96
-99 -133 -23 -86 30 -173 121 -200 68 -20 111 0 213 99 l88 86 32 -32 32 -33
-100 -98 c-82 -80 -110 -101 -154 -116 -202 -67 -393 124 -326 326 15 43 36
72 113 151 52 54 98 98 102 98 3 0 19 -14 35 -30z m150 -150 l90 -90 -75 -75
c-41 -41 -89 -82 -108 -91 -88 -41 -196 45 -178 142 5 26 28 57 88 120 44 46
84 84 87 84 4 0 47 -40 96 -90z" fill="currentColor"/>
<path d="M1317 682 c-108 -108 -197 -204 -197 -213 0 -25 199 -212 255 -240
69 -33 190 -34 252 -1 63 33 106 74 139 134 25 46 29 63 29 133 0 64 -5 90
-24 129 -28 56 -215 256 -240 256 -9 0 -105 -89 -214 -198z m315 50 c77 -79
98 -108 113 -151 67 -202 -124 -393 -326 -326 -44 15 -72 36 -154 116 l-100
98 32 33 32 32 88 -86 c103 -100 145 -120 215 -99 54 16 103 65 119 119 21 70
1 112 -99 214 l-86 88 29 30 c16 17 32 30 35 30 4 0 50 -44 102 -98z m-104
-76 c51 -53 82 -95 87 -115 21 -98 -88 -189 -177 -147 -19 9 -67 50 -108 91
l-75 75 90 90 c49 50 92 90 96 90 3 0 42 -38 87 -84z" fill="currentColor"/>
</g>
</svg>
